<svg width="14" height="15" viewBox="0 0 14 15" fill="none" xmlns="http://www.w3.org/2000/svg">
<path d="M7 0.5C3.13438 0.5 0 3.63438 0 7.5C0 11.3656 3.13438 14.5 7 14.5C10.8656 14.5 14 11.3656 14 7.5C14 3.63438 10.8656 0.5 7 0.5ZM6.5 4.125C6.5 4.05625 6.55625 4 6.625 4H7.375C7.44375 4 7.5 4.05625 7.5 4.125V8.375C7.5 8.44375 7.44375 8.5 7.375 8.5H6.625C6.55625 8.5 6.5 8.44375 6.5 8.375V4.125ZM7 11C6.80374 10.996 6.61687 10.9152 6.47948 10.775C6.3421 10.6348 6.26515 10.4463 6.26515 10.25C6.26515 10.0537 6.3421 9.86522 6.47948 9.725C6.61687 9.58478 6.80374 9.50401 7 9.5C7.19626 9.50401 7.38313 9.58478 7.52052 9.725C7.6579 9.86522 7.73485 10.0537 7.73485 10.25C7.73485 10.4463 7.6579 10.6348 7.52052 10.775C7.38313 10.9152 7.19626 10.996 7 11Z" fill="#FFEB00"/>
</svg>
